<svg width="42.000000" height="42.191772" viewBox="0 0 42 42.1918" fill="none" xmlns="http://www.w3.org/2000/svg" xmlns:xlink="http://www.w3.org/1999/xlink">
	<desc>
			Created with Pixso.
	</desc>
	<defs/>
	<path id="path" d="M37 0L5 0C2.23 0 0 2.25 0 5.02L0 37.16C0 39.94 2.23 42.19 5 42.19L37 42.19C39.75 42.19 42 39.94 42 37.16L42 5.02C42 2.25 39.75 0 37 0ZM33.72 29.13L29.99 29.12C29.99 29.12 29.91 29.13 29.78 29.13C29.48 29.13 28.86 29.05 28.13 28.54C26.81 27.63 25.56 25.36 24.58 25.36C24.51 25.36 24.45 25.37 24.39 25.39C23.53 25.66 23.27 26.53 23.27 27.58C23.27 27.95 23.01 28.12 22.31 28.12L20.37 28.12C18.21 28.12 16.12 28.07 13.78 25.49C10.31 21.68 7.07 14.91 7.07 14.91C7.07 14.91 6.9 14.52 7.08 14.29C7.27 14.08 7.68 14.06 7.84 14.06L11.91 14.06C11.91 14.06 12.28 14.13 12.55 14.33C12.78 14.5 12.9 14.81 12.9 14.81C12.9 14.81 13.58 16.14 14.43 17.64C15.86 20.11 16.62 20.93 17.18 20.93C17.27 20.93 17.36 20.91 17.45 20.86C18.27 20.41 18.03 16.75 18.03 16.75C18.03 16.75 18.04 15.43 17.61 14.84C17.28 14.38 16.65 14.25 16.37 14.21C16.15 14.18 16.51 13.66 16.99 13.42C17.61 13.11 18.64 13.05 19.87 13.05L20.48 13.05C21.65 13.07 21.68 13.2 22.14 13.31C23.52 13.64 23.05 14.93 23.05 18.04C23.05 19.03 22.87 20.43 23.58 20.9C23.63 20.93 23.7 20.95 23.79 20.95C24.25 20.95 25.24 20.36 26.81 17.68C27.7 16.15 28.38 14.63 28.38 14.63C28.38 14.63 28.53 14.36 28.76 14.22C28.98 14.09 28.98 14.09 29.27 14.09C29.59 14.09 32.8 14.06 33.5 14.06C34.16 14.06 34.86 14.07 34.97 14.48C35.13 15.1 34.48 16.22 32.77 18.53C29.95 22.32 29.63 22.04 31.97 24.23C34.21 26.31 34.66 27.33 34.75 27.46C35.68 29.01 33.72 29.13 33.72 29.13Z" fill="#ADADAD" fill-opacity="1.000000" fill-rule="nonzero"/>
</svg>
